<mxfile host="app.diagrams.net" agent="Mozilla/5.0 (Macintosh; Intel Mac OS X 10_15_7) AppleWebKit/537.36 (KHTML, like Gecko) Chrome/130.0.0.0 Safari/537.36" version="24.9.1">
  <diagram name="ページ1" id="V_7tRxMPtowpgSEQVV7B">
    <mxGraphModel dx="1434" dy="819" grid="1" gridSize="10" guides="1" tooltips="1" connect="1" arrows="1" fold="1" page="1" pageScale="1" pageWidth="827" pageHeight="1169" math="0" shadow="0">
      <root>
        <mxCell id="0" />
        <mxCell id="1" parent="0" />
        <mxCell id="6CbU6I6HvTVVlyyN0kxb-1" value="User&lt;div&gt;&lt;br&gt;&lt;/div&gt;" style="shape=umlActor;verticalLabelPosition=bottom;verticalAlign=top;html=1;outlineConnect=0;" parent="1" vertex="1">
          <mxGeometry x="160" y="230" width="30" height="60" as="geometry" />
        </mxCell>
        <mxCell id="6CbU6I6HvTVVlyyN0kxb-2" value="&lt;h4 style=&quot;line-height: 110%; font-size: 14px;&quot;&gt;Library management system&lt;/h4&gt;" style="whiteSpace=wrap;html=1;aspect=fixed;align=center;labelPosition=center;verticalLabelPosition=middle;verticalAlign=top;" parent="1" vertex="1">
          <mxGeometry x="230" y="160" width="270" height="270" as="geometry" />
        </mxCell>
        <mxCell id="6CbU6I6HvTVVlyyN0kxb-3" value="register user" style="ellipse;whiteSpace=wrap;html=1;" parent="1" vertex="1">
          <mxGeometry x="250" y="220" width="90" height="50" as="geometry" />
        </mxCell>
        <mxCell id="6CbU6I6HvTVVlyyN0kxb-5" value="Rent book" style="ellipse;whiteSpace=wrap;html=1;" parent="1" vertex="1">
          <mxGeometry x="250" y="290" width="90" height="50" as="geometry" />
        </mxCell>
        <mxCell id="6CbU6I6HvTVVlyyN0kxb-6" value="Return Book" style="ellipse;whiteSpace=wrap;html=1;" parent="1" vertex="1">
          <mxGeometry x="374" y="290" width="90" height="50" as="geometry" />
        </mxCell>
        <mxCell id="6CbU6I6HvTVVlyyN0kxb-8" value="Register Book" style="ellipse;whiteSpace=wrap;html=1;" parent="1" vertex="1">
          <mxGeometry x="250" y="360" width="90" height="50" as="geometry" />
        </mxCell>
        <mxCell id="6CbU6I6HvTVVlyyN0kxb-9" value="Discard Book" style="ellipse;whiteSpace=wrap;html=1;" parent="1" vertex="1">
          <mxGeometry x="374" y="360" width="90" height="50" as="geometry" />
        </mxCell>
        <mxCell id="6CbU6I6HvTVVlyyN0kxb-10" value="" style="endArrow=none;html=1;rounded=0;entryX=0;entryY=0;entryDx=0;entryDy=0;exitX=0.75;exitY=0.1;exitDx=0;exitDy=0;exitPerimeter=0;" parent="1" source="6CbU6I6HvTVVlyyN0kxb-1" target="6CbU6I6HvTVVlyyN0kxb-5" edge="1">
          <mxGeometry width="50" height="50" relative="1" as="geometry">
            <mxPoint x="190" y="270" as="sourcePoint" />
            <mxPoint x="250" y="300" as="targetPoint" />
          </mxGeometry>
        </mxCell>
        <mxCell id="6CbU6I6HvTVVlyyN0kxb-12" value="" style="endArrow=none;html=1;rounded=0;entryX=0;entryY=0;entryDx=0;entryDy=0;exitX=0.75;exitY=0.1;exitDx=0;exitDy=0;exitPerimeter=0;" parent="1" source="6CbU6I6HvTVVlyyN0kxb-1" target="6CbU6I6HvTVVlyyN0kxb-6" edge="1">
          <mxGeometry width="50" height="50" relative="1" as="geometry">
            <mxPoint x="190" y="263" as="sourcePoint" />
            <mxPoint x="263" y="290" as="targetPoint" />
          </mxGeometry>
        </mxCell>
        <mxCell id="6CbU6I6HvTVVlyyN0kxb-14" value="Library" style="shape=umlActor;verticalLabelPosition=bottom;verticalAlign=top;html=1;outlineConnect=0;" parent="1" vertex="1">
          <mxGeometry x="540" y="230" width="30" height="60" as="geometry" />
        </mxCell>
        <mxCell id="6CbU6I6HvTVVlyyN0kxb-16" value="" style="endArrow=none;html=1;rounded=0;entryX=0.25;entryY=0.1;entryDx=0;entryDy=0;entryPerimeter=0;exitX=1;exitY=0;exitDx=0;exitDy=0;" parent="1" source="6CbU6I6HvTVVlyyN0kxb-3" target="6CbU6I6HvTVVlyyN0kxb-14" edge="1">
          <mxGeometry width="50" height="50" relative="1" as="geometry">
            <mxPoint x="464" y="239" as="sourcePoint" />
            <mxPoint x="548" y="230" as="targetPoint" />
          </mxGeometry>
        </mxCell>
        <mxCell id="6CbU6I6HvTVVlyyN0kxb-17" value="" style="endArrow=none;html=1;rounded=0;entryX=0.25;entryY=0.1;entryDx=0;entryDy=0;entryPerimeter=0;" parent="1" source="6CbU6I6HvTVVlyyN0kxb-8" target="6CbU6I6HvTVVlyyN0kxb-14" edge="1">
          <mxGeometry width="50" height="50" relative="1" as="geometry">
            <mxPoint x="360" y="370" as="sourcePoint" />
            <mxPoint x="581" y="379" as="targetPoint" />
          </mxGeometry>
        </mxCell>
        <mxCell id="6CbU6I6HvTVVlyyN0kxb-18" value="" style="endArrow=none;html=1;rounded=0;entryX=0.25;entryY=0.1;entryDx=0;entryDy=0;entryPerimeter=0;exitX=1;exitY=0;exitDx=0;exitDy=0;" parent="1" source="6CbU6I6HvTVVlyyN0kxb-9" target="6CbU6I6HvTVVlyyN0kxb-14" edge="1">
          <mxGeometry width="50" height="50" relative="1" as="geometry">
            <mxPoint x="336" y="377" as="sourcePoint" />
            <mxPoint x="550" y="240" as="targetPoint" />
          </mxGeometry>
        </mxCell>
        <mxCell id="Eeln4Mz9N6PySG0A6p0g-2" value="" style="endArrow=none;html=1;rounded=0;exitX=0.75;exitY=0.1;exitDx=0;exitDy=0;exitPerimeter=0;entryX=0.5;entryY=0;entryDx=0;entryDy=0;" edge="1" parent="1" source="6CbU6I6HvTVVlyyN0kxb-1" target="6CbU6I6HvTVVlyyN0kxb-3">
          <mxGeometry width="50" height="50" relative="1" as="geometry">
            <mxPoint x="390" y="450" as="sourcePoint" />
            <mxPoint x="440" y="400" as="targetPoint" />
          </mxGeometry>
        </mxCell>
      </root>
    </mxGraphModel>
  </diagram>
</mxfile>
